<svg width="24" height="24" viewBox="0 0 24 24" fill="none" xmlns="http://www.w3.org/2000/svg">
<path d="M12.002 2.005C17.52 2.005 22 6.485 22 12.002C22 17.52 17.52 22 12.002 22C6.485 22 2.005 17.52 2.005 12.002C2.005 6.485 6.485 2.005 12.002 2.005V2.005ZM12.002 3.505C7.312 3.505 3.505 7.312 3.505 12.002C3.505 16.692 7.312 20.5 12.002 20.5C16.692 20.5 20.5 16.692 20.5 12.002C20.5 7.312 16.692 3.505 12.002 3.505V3.505ZM12.002 10.93L14.719 8.212C14.865 8.066 15.058 7.993 15.25 7.993C15.654 7.993 16 8.318 16 8.743C16 8.936 15.927 9.127 15.781 9.274L13.064 11.991L15.791 14.719C15.938 14.866 16.011 15.058 16.011 15.25C16.011 15.677 15.662 16 15.261 16C15.069 16 14.877 15.927 14.731 15.781L12.002 13.053L9.274 15.781C9.128 15.927 8.936 16 8.744 16C8.343 16 7.993 15.677 7.993 15.25C7.993 15.058 8.066 14.866 8.213 14.719L10.941 11.991L8.219 9.269C8.073 9.122 8 8.931 8 8.738C8 8.313 8.346 7.989 8.75 7.989C8.942 7.989 9.135 8.062 9.281 8.208L12.002 10.93Z" fill="#F9F9F9"/>
</svg>
