<svg width="72" height="72" viewBox="0 0 72 72" fill="none" xmlns="http://www.w3.org/2000/svg">
<g clip-path="url(#clip0_7_75)">
<path d="M36 6C52.542 6 66 19.458 66 36C66 52.542 52.542 66 36 66C19.458 66 6 52.542 6 36C6 19.458 19.458 6 36 6ZM36 0C16.119 0 0 16.119 0 36C0 55.881 16.119 72 36 72C55.881 72 72 55.881 72 36C72 16.119 55.881 0 36 0ZM36 18C26.061 18 18 26.058 18 36C18 43.953 23.157 50.7 30.312 53.079C31.212 53.247 31.5 52.689 31.5 52.212V48.861C26.493 49.95 25.449 46.74 25.449 46.74C24.633 44.661 23.451 44.106 23.451 44.106C21.819 42.987 23.574 43.011 23.574 43.011C25.383 43.137 26.334 44.868 26.334 44.868C27.939 47.619 30.543 46.824 31.572 46.365C31.734 45.201 32.199 44.409 32.715 43.959C28.716 43.503 24.516 41.958 24.516 35.064C24.516 33.099 25.218 31.494 26.37 30.234C26.184 29.775 25.566 27.942 26.544 25.464C26.544 25.464 28.056 24.981 31.494 27.309C32.931 26.91 34.47 26.712 36 26.703C37.53 26.709 39.069 26.91 40.509 27.309C43.947 24.981 45.453 25.464 45.453 25.464C46.434 27.942 45.816 29.775 45.633 30.228C46.788 31.488 47.484 33.093 47.484 35.058C47.484 41.973 43.272 43.494 39.264 43.938C39.912 44.496 40.5 45.591 40.5 47.271V52.209C40.5 52.689 40.788 53.25 41.7 53.073C48.849 50.694 54 43.95 54 36C54 26.058 45.939 18 36 18Z" fill="#F9F9F9"/>
</g>
<defs>
<clipPath id="clip0_7_75">
<rect width="72" height="72" fill="white"/>
</clipPath>
</defs>
</svg>
