<svg width="38" height="38" viewBox="0 0 38 38" fill="none" xmlns="http://www.w3.org/2000/svg">
<g clip-path="url(#clip0_84_14)">
<path d="M36.5924 31.7585L28.7122 23.8783C30.2401 21.4716 31.1236 18.6184 31.1236 15.5642C31.1236 6.9825 24.1427 0 15.561 0C6.97933 0 0 6.9825 0 15.5642C0 24.1458 6.97933 31.1283 15.5626 31.1283C18.4664 31.1283 21.1866 30.3288 23.5141 28.9386L31.464 36.8885C34.8587 40.2784 39.9887 35.1532 36.5924 31.7585ZM4.82442 15.5642C4.82442 9.64408 9.6425 4.826 15.5626 4.826C21.4827 4.826 26.3007 9.6425 26.3007 15.5642C26.3007 21.4858 21.4827 26.3023 15.5626 26.3023C9.6425 26.3023 4.82442 21.4843 4.82442 15.5642V15.5642ZM8.00692 12.7712C11.1482 5.48942 21.7249 6.33333 23.7167 13.9571C19.7046 9.24825 12.6445 8.74158 8.00692 12.7712Z" fill="#F9F9F9"/>
</g>
<defs>
<clipPath id="clip0_84_14">
<rect width="38" height="38" fill="white"/>
</clipPath>
</defs>
</svg>
