<svg width="20" height="20" viewBox="0 0 20 20" fill="none" xmlns="http://www.w3.org/2000/svg">
<path d="M10.002 0.00500107C15.52 0.00500107 20 4.485 20 10.002C20 15.52 15.52 20 10.002 20C4.485 20 0.00500011 15.52 0.00500011 10.002C0.00500011 4.485 4.485 0.00500107 10.002 0.00500107V0.00500107ZM10.002 1.505C5.312 1.505 1.505 5.312 1.505 10.002C1.505 14.692 5.312 18.5 10.002 18.5C14.692 18.5 18.5 14.692 18.5 10.002C18.5 5.312 14.692 1.505 10.002 1.505V1.505ZM10.002 8.93L12.719 6.212C12.865 6.066 13.058 5.993 13.25 5.993C13.654 5.993 14 6.318 14 6.743C14 6.936 13.927 7.127 13.781 7.274L11.064 9.991L13.791 12.719C13.938 12.866 14.011 13.058 14.011 13.25C14.011 13.677 13.662 14 13.261 14C13.069 14 12.877 13.927 12.731 13.781L10.002 11.053L7.274 13.781C7.128 13.927 6.936 14 6.744 14C6.343 14 5.993 13.677 5.993 13.25C5.993 13.058 6.066 12.866 6.213 12.719L8.941 9.991L6.219 7.269C6.073 7.122 6 6.931 6 6.738C6 6.313 6.346 5.989 6.75 5.989C6.942 5.989 7.135 6.062 7.281 6.208L10.002 8.93Z" fill="#305973"/>
</svg>
