<svg width="75" height="75" viewBox="0 0 75 75" fill="none" xmlns="http://www.w3.org/2000/svg">
<g clip-path="url(#clip0_4_32)">
<path d="M75 64.6312C74.9938 69.4906 71.3438 71.875 68 71.875C65.1781 71.875 62.5 70.175 62.5 66.825C62.5 63.375 66.2531 60.2063 70.3594 60.2063C70.8625 60.2063 71.3688 60.2531 71.875 60.3531V46.8781L53.125 50.7188V67.75C53.1188 72.6125 49.4375 75 46.0687 75C43.2375 75 40.625 73.3063 40.625 69.9688C40.625 66.5125 44.3781 63.3281 48.4937 63.3281C48.9937 63.3281 49.5 63.375 50.0063 63.475V43.1L75 37.5V64.6312ZM34.375 43.75C29.1969 43.75 25 39.5531 25 34.375C25 29.1969 29.1969 25 34.375 25C39.5531 25 43.75 29.1969 43.75 34.375C43.75 39.5531 39.5531 43.75 34.375 43.75ZM34.375 40.625C37.8219 40.625 40.625 37.8219 40.625 34.375C40.625 30.9281 37.8219 28.125 34.375 28.125C30.9281 28.125 28.125 30.9281 28.125 34.375C28.125 37.8219 30.9281 40.625 34.375 40.625ZM28.6938 48.8937C24.6531 47.3063 21.4469 44.1 19.8594 40.0594L16.6562 40.4594C18.5312 45.9156 22.8406 50.225 28.2969 52.0969L28.6938 48.8937ZM13.4781 40.8563L10.3531 41.2469C12.7188 49.5219 19.2281 56.0312 27.5031 58.3969L27.8937 55.2719C21.0375 53.1375 15.6125 47.7156 13.4781 40.8563ZM40.0562 19.8563C44.0969 21.4438 47.3031 24.65 48.8906 28.6938L52.0938 28.2937C50.2188 22.8375 45.9094 18.5281 40.4531 16.6531L40.0562 19.8563ZM34.5219 68.7437C34.7781 66.45 35.7031 64.2406 37.2656 62.3531C36.3156 62.4469 35.35 62.5 34.375 62.5C18.8656 62.5 6.25 49.8812 6.25 34.375C6.25 18.8687 18.8656 6.25 34.375 6.25C49.725 6.25 62.2188 18.6156 62.475 33.9031L68.6562 32.5187C67.6844 14.4 52.7313 0 34.375 0C15.3906 0 0 15.3906 0 34.375C0 53.3594 15.3906 68.75 34.375 68.75L34.5219 68.7437ZM41.2438 10.3531L40.8531 13.4781C47.7125 15.6094 53.1375 21.0344 55.2688 27.8937L58.3938 27.5031C56.0344 19.2281 49.525 12.7156 41.2438 10.3531Z" fill="#305973"/>
</g>
<defs>
<clipPath id="clip0_4_32">
<rect width="75" height="75" fill="white"/>
</clipPath>
</defs>
</svg>
