<svg width="50" height="44" viewBox="0 0 50 44" fill="none" xmlns="http://www.w3.org/2000/svg">
<g clip-path="url(#clip0_83_2)">
<path d="M25 26.4079C27.4613 26.4079 29.4565 24.4344 29.4565 22C29.4565 19.5656 27.4613 17.5922 25 17.5922C22.5387 17.5922 20.5435 19.5656 20.5435 22C20.5435 24.4344 22.5387 26.4079 25 26.4079Z" fill="#305973"/>
<path d="M25 31.0307C38.2068 31.0307 48.913 26.9876 48.913 22C48.913 17.0125 38.2068 12.9693 25 12.9693C11.7932 12.9693 1.08696 17.0125 1.08696 22C1.08696 26.9876 11.7932 31.0307 25 31.0307Z" stroke="#305973"/>
<path d="M17.0928 26.5154C23.6962 37.8279 32.5895 44.9769 36.9565 42.4832C41.3235 39.9894 39.5106 28.7972 32.9072 17.4847C26.3038 6.17214 17.4105 -0.976879 13.0435 1.51689C8.67646 4.01065 10.4894 15.2029 17.0928 26.5154Z" stroke="#305973"/>
<path d="M17.0928 17.4846C10.4894 28.7972 8.67646 39.9894 13.0435 42.4831C17.4105 44.9769 26.3038 37.8279 32.9072 26.5154C39.5106 15.2028 41.3235 4.01063 36.9565 1.51687C32.5895 -0.976898 23.6962 6.17212 17.0928 17.4846Z" stroke="#305973"/>
</g>
<defs>
<clipPath id="clip0_83_2">
<rect width="50" height="44" fill="white"/>
</clipPath>
</defs>
</svg>
